<svg width="11" height="11" viewBox="0 0 11 11" fill="none" xmlns="http://www.w3.org/2000/svg">
<path d="M5.5 0C8.53757 0 11 2.46243 11 5.5C11 8.53757 8.53757 11 5.5 11C2.46243 11 0 8.53757 0 5.5C0 2.46243 2.46243 0 5.5 0ZM5.5 7.15C4.27045 7.15 3.12582 7.65719 2.30499 8.52455C3.10677 9.37181 4.2417 9.9 5.5 9.9C6.75803 9.9 7.89274 9.37204 8.69466 8.5256C7.87312 7.65617 6.72861 7.15 5.5 7.15ZM5.5 1.1C3.06995 1.1 1.1 3.06995 1.1 5.5C1.1 6.27118 1.29839 6.99602 1.64693 7.62627C2.28827 6.99468 3.07361 6.53123 3.9358 6.27599C3.54389 5.76834 3.3 5.10348 3.3 4.46111C3.3 3.09701 4.04685 2.2 5.5 2.2C6.95315 2.2 7.7 3.09701 7.7 4.46111C7.7 5.10372 7.45594 5.76882 7.06353 6.27678C7.92549 6.5308 8.71099 6.99405 9.35341 7.62533C9.7016 6.99602 9.9 6.27118 9.9 5.5C9.9 3.06995 7.93005 1.1 5.5 1.1ZM5.5 3.3C4.7035 3.3 4.4 3.66452 4.4 4.46111C4.4 5.21584 4.99788 6.05 5.5 6.05C6.00212 6.05 6.6 5.21584 6.6 4.46111C6.6 3.66452 6.2965 3.3 5.5 3.3Z" fill="#6D6E70"/>
</svg>
