<svg width="9" height="11" viewBox="0 0 9 11" fill="none" xmlns="http://www.w3.org/2000/svg">
<path fill-rule="evenodd" clip-rule="evenodd" d="M1.14347 9.64922L0.523438 1.56055H8.4397L7.81967 9.64922C7.79043 10.0298 7.47285 10.3237 7.09177 10.3237H1.87194C1.49035 10.3237 1.1727 10.0298 1.14347 9.64922ZM3.38618 3.38643C3.38618 3.1848 3.22286 3.02148 3.02122 3.02148C2.81958 3.02148 2.65576 3.1848 2.65576 3.38643V7.76797C2.65576 7.9696 2.81958 8.13293 3.02122 8.13293C3.22286 8.13293 3.38618 7.9696 3.38618 7.76797V3.38643ZM4.84648 3.38643C4.84648 3.1848 4.68315 3.02148 4.48152 3.02148C4.27988 3.02148 4.11656 3.1848 4.11656 3.38643V7.76797C4.11656 7.9696 4.27988 8.13293 4.48152 8.13293C4.68315 8.13293 4.84648 7.9696 4.84648 7.76797V3.38643ZM6.30729 3.38643C6.30729 3.1848 6.14346 3.02148 5.94183 3.02148C5.74019 3.02148 5.57687 3.1848 5.57687 3.38643V7.76797C5.57687 7.9696 5.74019 8.13293 5.94183 8.13293C6.14346 8.13293 6.30729 7.9696 6.30729 7.76797V3.38643Z" fill="white"/>
<path fill-rule="evenodd" clip-rule="evenodd" d="M2.91169 0H6.08844V0.793936H9V1.32374H0V0.793936H2.91156L2.91169 0ZM3.44149 0.793936H5.55915V0.529287H3.44149V0.793936Z" fill="white"/>
</svg>
