<svg width="9" height="9" viewBox="0 0 9 9" fill="none" xmlns="http://www.w3.org/2000/svg">
<path d="M8.595 1.87269L7.12731 0.405C6.86423 0.145385 6.51808 0 6.14769 0H6.05769C5.96077 0 5.88462 0.0761538 5.88462 0.173077V2.07692C5.88462 2.45769 5.57308 2.76923 5.19231 2.76923H2.07692C1.69615 2.76923 1.38462 2.45769 1.38462 2.07692V0.173077C1.38462 0.0761538 1.30846 0 1.21154 0H1.03846C0.467308 0 0 0.467308 0 1.03846V7.96154C0 8.53269 0.467308 9 1.03846 9H1.21154C1.30846 9 1.38462 8.92385 1.38462 8.82692V5.19231C1.38462 4.81154 1.69615 4.5 2.07692 4.5H6.92308C7.30385 4.5 7.61539 4.81154 7.61539 5.19231V8.82692C7.61539 8.92385 7.69154 9 7.78846 9H7.96154C8.53269 9 9 8.53269 9 7.96154V2.85231C9 2.48885 8.85115 2.13231 8.595 1.87269Z" fill="white"/>
<path d="M2.07617 5.36546V8.827C2.07617 8.92392 2.15233 9.00007 2.24925 9.00007H6.74925C6.84617 9.00007 6.92233 8.92392 6.92233 8.827V5.36546C6.92233 5.26854 6.84617 5.19238 6.74925 5.19238H2.24925C2.15233 5.19238 2.07617 5.26854 2.07617 5.36546Z" fill="white"/>
<path d="M2.07617 0.173077V1.90385C2.07617 2.00077 2.15233 2.07692 2.24925 2.07692H5.01848C5.1154 2.07692 5.19156 2.00077 5.19156 1.90385V0.173077C5.19156 0.0761538 5.1154 0 5.01848 0H2.24925C2.15233 0 2.07617 0.0761538 2.07617 0.173077Z" fill="white"/>
</svg>
