<svg width="11" height="11" viewBox="0 0 11 11" fill="none" xmlns="http://www.w3.org/2000/svg">
<path d="M5.49991 3.96466C5.78247 3.96466 6.01154 3.7356 6.01154 3.45303C6.01154 3.17047 5.78247 2.94141 5.49991 2.94141C5.21734 2.94141 4.98828 3.17047 4.98828 3.45303C4.98828 3.7356 5.21734 3.96466 5.49991 3.96466Z" fill="#6D6E70"/>
<path fill-rule="evenodd" clip-rule="evenodd" d="M5.88352 8.05798V4.98821C5.88352 4.7764 5.71161 4.60449 5.4998 4.60449H4.73235C4.52054 4.60449 4.34863 4.7764 4.34863 4.98821C4.34863 5.20003 4.52054 5.37193 4.73235 5.37193H5.11607V8.05798C5.11607 8.26979 5.28798 8.4417 5.4998 8.4417C5.71161 8.4417 5.88352 8.26979 5.88352 8.05798Z" fill="#6D6E70"/>
<path fill-rule="evenodd" clip-rule="evenodd" d="M6.52301 7.6748H4.47649C4.26468 7.6748 4.09277 7.84671 4.09277 8.05853C4.09277 8.27034 4.26468 8.44225 4.47649 8.44225H6.52301C6.73482 8.44225 6.90673 8.27034 6.90673 8.05853C6.90673 7.84671 6.73482 7.6748 6.52301 7.6748Z" fill="#6D6E70"/>
<path fill-rule="evenodd" clip-rule="evenodd" d="M5.5 0C2.46451 0 0 2.46451 0 5.5C0 8.53549 2.46451 11 5.5 11C8.53549 11 11 8.53549 11 5.5C11 2.46451 8.53549 0 5.5 0ZM5.5 0.767442C8.11186 0.767442 10.2326 2.88814 10.2326 5.5C10.2326 8.11186 8.11186 10.2326 5.5 10.2326C2.88814 10.2326 0.767442 8.11186 0.767442 5.5C0.767442 2.88814 2.88814 0.767442 5.5 0.767442Z" fill="#6D6E70"/>
</svg>
