<svg width="201" height="102" viewBox="0 0 201 102" fill="none" xmlns="http://www.w3.org/2000/svg">
<path d="M111.081 35.3683C112.839 35.3683 114.264 33.9431 114.264 32.1851C114.264 30.4271 112.839 29.002 111.081 29.002C109.323 29.002 107.897 30.4271 107.897 32.1851C107.897 33.9431 109.323 35.3683 111.081 35.3683Z" fill="#D2A5FF"/>
<path d="M1.54 98C1.43733 98 1.358 97.972 1.302 97.916C1.246 97.8507 1.218 97.7713 1.218 97.678V88.536C1.218 88.4333 1.246 88.354 1.302 88.298C1.358 88.2327 1.43733 88.2 1.54 88.2H4.718C5.67933 88.2 6.454 88.3447 7.042 88.634C7.63 88.9233 8.05933 89.3527 8.33 89.922C8.60067 90.482 8.74067 91.1727 8.75 91.994C8.75933 92.414 8.764 92.7827 8.764 93.1C8.764 93.4173 8.75933 93.7813 8.75 94.192C8.73133 95.0507 8.58667 95.7647 8.316 96.334C8.05467 96.894 7.63467 97.314 7.056 97.594C6.48667 97.8647 5.73067 98 4.788 98H1.54ZM2.59 96.81H4.718C5.362 96.81 5.87533 96.7213 6.258 96.544C6.64067 96.3667 6.916 96.082 7.084 95.69C7.26133 95.298 7.35467 94.78 7.364 94.136C7.38267 93.856 7.392 93.6133 7.392 93.408C7.392 93.1933 7.392 92.9833 7.392 92.778C7.392 92.5633 7.38267 92.3207 7.364 92.05C7.34533 91.1447 7.13067 90.4773 6.72 90.048C6.30933 89.6093 5.61867 89.39 4.648 89.39H2.59V96.81ZM10.7303 98C10.637 98 10.5577 97.972 10.4923 97.916C10.4363 97.8507 10.4083 97.7713 10.4083 97.678V91.056C10.4083 90.9627 10.4363 90.8833 10.4923 90.818C10.5577 90.7527 10.637 90.72 10.7303 90.72H11.3743C11.4677 90.72 11.547 90.7527 11.6123 90.818C11.6777 90.8833 11.7103 90.9627 11.7103 91.056V91.672C11.897 91.3547 12.1537 91.1167 12.4803 90.958C12.807 90.7993 13.199 90.72 13.6563 90.72H14.2163C14.3097 90.72 14.3843 90.7527 14.4403 90.818C14.4963 90.874 14.5243 90.9487 14.5243 91.042V91.616C14.5243 91.7093 14.4963 91.784 14.4403 91.84C14.3843 91.896 14.3097 91.924 14.2163 91.924H13.3763C12.8723 91.924 12.4757 92.0733 12.1863 92.372C11.897 92.6613 11.7523 93.058 11.7523 93.562V97.678C11.7523 97.7713 11.7197 97.8507 11.6543 97.916C11.589 97.972 11.5097 98 11.4163 98H10.7303ZM17.3673 98.14C16.9007 98.14 16.476 98.0467 16.0933 97.86C15.7107 97.6733 15.4027 97.4213 15.1693 97.104C14.936 96.7867 14.8193 96.4273 14.8193 96.026C14.8193 95.382 15.0807 94.8687 15.6033 94.486C16.126 94.1033 16.8073 93.8513 17.6473 93.73L19.7333 93.436V93.03C19.7333 92.582 19.6027 92.232 19.3413 91.98C19.0893 91.728 18.674 91.602 18.0953 91.602C17.6753 91.602 17.3347 91.686 17.0733 91.854C16.8213 92.022 16.644 92.2367 16.5413 92.498C16.4853 92.638 16.3873 92.708 16.2473 92.708H15.6173C15.5147 92.708 15.4353 92.68 15.3793 92.624C15.3327 92.5587 15.3093 92.484 15.3093 92.4C15.3093 92.26 15.3607 92.0873 15.4633 91.882C15.5753 91.6767 15.7433 91.476 15.9673 91.28C16.1913 91.084 16.476 90.9207 16.8213 90.79C17.176 90.65 17.6053 90.58 18.1093 90.58C18.6693 90.58 19.1407 90.6547 19.5233 90.804C19.906 90.944 20.2047 91.1353 20.4193 91.378C20.6433 91.6207 20.802 91.896 20.8953 92.204C20.998 92.512 21.0493 92.8247 21.0493 93.142V97.678C21.0493 97.7713 21.0167 97.8507 20.9513 97.916C20.8953 97.972 20.8207 98 20.7273 98H20.0833C19.9807 98 19.9013 97.972 19.8453 97.916C19.7893 97.8507 19.7613 97.7713 19.7613 97.678V97.076C19.64 97.244 19.4767 97.412 19.2713 97.58C19.066 97.7387 18.8093 97.874 18.5013 97.986C18.1933 98.0887 17.8153 98.14 17.3673 98.14ZM17.6613 97.09C18.044 97.09 18.394 97.0107 18.7113 96.852C19.0287 96.684 19.276 96.4273 19.4533 96.082C19.64 95.7367 19.7333 95.3027 19.7333 94.78V94.388L18.1093 94.626C17.4467 94.7193 16.9473 94.878 16.6113 95.102C16.2753 95.3167 16.1073 95.592 16.1073 95.928C16.1073 96.1893 16.182 96.4087 16.3313 96.586C16.49 96.754 16.686 96.88 16.9193 96.964C17.162 97.048 17.4093 97.09 17.6613 97.09ZM25.7639 101.08C25.1293 101.08 24.6066 100.996 24.1959 100.828C23.7946 100.66 23.4773 100.455 23.2439 100.212C23.0199 99.9787 22.8566 99.7407 22.7539 99.498C22.6606 99.2647 22.6093 99.078 22.5999 98.938C22.5906 98.8447 22.6186 98.7653 22.6839 98.7C22.7586 98.6347 22.8379 98.602 22.9219 98.602H23.5939C23.6779 98.602 23.7479 98.6207 23.8039 98.658C23.8599 98.6953 23.9066 98.7747 23.9439 98.896C23.9999 99.036 24.0839 99.19 24.1959 99.358C24.3079 99.5353 24.4806 99.6847 24.7139 99.806C24.9473 99.9367 25.2739 100.002 25.6939 100.002C26.1326 100.002 26.5013 99.9413 26.7999 99.82C27.0986 99.708 27.3226 99.5027 27.4719 99.204C27.6306 98.9147 27.7099 98.5133 27.7099 98V97.048C27.4859 97.3373 27.1919 97.58 26.8279 97.776C26.4639 97.9627 26.0066 98.056 25.4559 98.056C24.9333 98.056 24.4853 97.9673 24.1119 97.79C23.7386 97.6033 23.4306 97.356 23.1879 97.048C22.9546 96.7307 22.7773 96.3713 22.6559 95.97C22.5439 95.5687 22.4786 95.1487 22.4599 94.71C22.4506 94.4487 22.4506 94.192 22.4599 93.94C22.4786 93.5013 22.5439 93.0813 22.6559 92.68C22.7773 92.2787 22.9546 91.9193 23.1879 91.602C23.4306 91.2847 23.7386 91.0373 24.1119 90.86C24.4853 90.6733 24.9333 90.58 25.4559 90.58C26.0159 90.58 26.4779 90.6873 26.8419 90.902C27.2153 91.1073 27.5186 91.3593 27.7519 91.658V91.056C27.7519 90.9627 27.7799 90.8833 27.8359 90.818C27.9013 90.7527 27.9806 90.72 28.0739 90.72H28.7179C28.8113 90.72 28.8906 90.7527 28.9559 90.818C29.0213 90.8833 29.0539 90.9627 29.0539 91.056V97.846C29.0539 98.4713 28.9466 99.0267 28.7319 99.512C28.5266 99.9973 28.1813 100.38 27.6959 100.66C27.2199 100.94 26.5759 101.08 25.7639 101.08ZM25.7359 96.936C26.2026 96.936 26.5759 96.8287 26.8559 96.614C27.1453 96.3993 27.3553 96.1287 27.4859 95.802C27.6259 95.4753 27.7006 95.144 27.7099 94.808C27.7193 94.6773 27.7239 94.5187 27.7239 94.332C27.7239 94.136 27.7193 93.9727 27.7099 93.842C27.7006 93.506 27.6259 93.1747 27.4859 92.848C27.3553 92.5213 27.1453 92.2507 26.8559 92.036C26.5759 91.8213 26.2026 91.714 25.7359 91.714C25.2693 91.714 24.8959 91.8213 24.6159 92.036C24.3359 92.2413 24.1353 92.5167 24.0139 92.862C23.8926 93.198 23.8226 93.562 23.8039 93.954C23.7946 94.1967 23.7946 94.444 23.8039 94.696C23.8226 95.088 23.8926 95.4567 24.0139 95.802C24.1353 96.138 24.3359 96.4133 24.6159 96.628C24.8959 96.8333 25.2693 96.936 25.7359 96.936ZM36.0371 98.14C35.5704 98.14 35.1458 98.0467 34.7631 97.86C34.3804 97.6733 34.0724 97.4213 33.8391 97.104C33.6058 96.7867 33.4891 96.4273 33.4891 96.026C33.4891 95.382 33.7504 94.8687 34.2731 94.486C34.7958 94.1033 35.4771 93.8513 36.3171 93.73L38.4031 93.436V93.03C38.4031 92.582 38.2724 92.232 38.0111 91.98C37.7591 91.728 37.3438 91.602 36.7651 91.602C36.3451 91.602 36.0044 91.686 35.7431 91.854C35.4911 92.022 35.3138 92.2367 35.2111 92.498C35.1551 92.638 35.0571 92.708 34.9171 92.708H34.2871C34.1844 92.708 34.1051 92.68 34.0491 92.624C34.0024 92.5587 33.9791 92.484 33.9791 92.4C33.9791 92.26 34.0304 92.0873 34.1331 91.882C34.2451 91.6767 34.4131 91.476 34.6371 91.28C34.8611 91.084 35.1458 90.9207 35.4911 90.79C35.8458 90.65 36.2751 90.58 36.7791 90.58C37.3391 90.58 37.8104 90.6547 38.1931 90.804C38.5758 90.944 38.8744 91.1353 39.0891 91.378C39.3131 91.6207 39.4718 91.896 39.5651 92.204C39.6678 92.512 39.7191 92.8247 39.7191 93.142V97.678C39.7191 97.7713 39.6864 97.8507 39.6211 97.916C39.5651 97.972 39.4904 98 39.3971 98H38.7531C38.6504 98 38.5711 97.972 38.5151 97.916C38.4591 97.8507 38.4311 97.7713 38.4311 97.678V97.076C38.3098 97.244 38.1464 97.412 37.9411 97.58C37.7358 97.7387 37.4791 97.874 37.1711 97.986C36.8631 98.0887 36.4851 98.14 36.0371 98.14ZM36.3311 97.09C36.7138 97.09 37.0638 97.0107 37.3811 96.852C37.6984 96.684 37.9458 96.4273 38.1231 96.082C38.3098 95.7367 38.4031 95.3027 38.4031 94.78V94.388L36.7791 94.626C36.1164 94.7193 35.6171 94.878 35.2811 95.102C34.9451 95.3167 34.7771 95.592 34.7771 95.928C34.7771 96.1893 34.8518 96.4087 35.0011 96.586C35.1598 96.754 35.3558 96.88 35.5891 96.964C35.8318 97.048 36.0791 97.09 36.3311 97.09ZM41.7737 98C41.6804 98 41.601 97.972 41.5357 97.916C41.4797 97.8507 41.4517 97.7713 41.4517 97.678V91.042C41.4517 90.9487 41.4797 90.874 41.5357 90.818C41.601 90.7527 41.6804 90.72 41.7737 90.72H42.4317C42.525 90.72 42.5997 90.7527 42.6557 90.818C42.721 90.874 42.7537 90.9487 42.7537 91.042V91.658C42.9964 91.3407 43.2997 91.084 43.6637 90.888C44.037 90.6827 44.513 90.58 45.0917 90.58C45.6984 90.58 46.2117 90.7153 46.6317 90.986C47.061 91.2473 47.383 91.616 47.5977 92.092C47.8124 92.5587 47.9197 93.1047 47.9197 93.73V97.678C47.9197 97.7713 47.8917 97.8507 47.8357 97.916C47.7797 97.972 47.705 98 47.6117 98H46.9117C46.8184 98 46.739 97.972 46.6737 97.916C46.6177 97.8507 46.5897 97.7713 46.5897 97.678V93.8C46.5897 93.1467 46.431 92.638 46.1137 92.274C45.7964 91.9007 45.3297 91.714 44.7137 91.714C44.135 91.714 43.6684 91.9007 43.3137 92.274C42.9684 92.638 42.7957 93.1467 42.7957 93.8V97.678C42.7957 97.7713 42.763 97.8507 42.6977 97.916C42.6417 97.972 42.567 98 42.4737 98H41.7737ZM52.3219 98.14C51.8086 98.14 51.3653 98.0513 50.9919 97.874C50.6186 97.6873 50.3106 97.44 50.0679 97.132C49.8346 96.8147 49.6573 96.4553 49.5359 96.054C49.4239 95.6527 49.3586 95.228 49.3399 94.78C49.3306 94.6307 49.3259 94.4907 49.3259 94.36C49.3259 94.2293 49.3306 94.0893 49.3399 93.94C49.3586 93.5013 49.4239 93.0813 49.5359 92.68C49.6573 92.2787 49.8346 91.9193 50.0679 91.602C50.3106 91.2847 50.6186 91.0373 50.9919 90.86C51.3653 90.6733 51.8086 90.58 52.3219 90.58C52.8726 90.58 53.3299 90.678 53.6939 90.874C54.0579 91.07 54.3566 91.3127 54.5899 91.602V88.382C54.5899 88.2887 54.6179 88.214 54.6739 88.158C54.7393 88.0927 54.8186 88.06 54.9119 88.06H55.5839C55.6773 88.06 55.7519 88.0927 55.8079 88.158C55.8733 88.214 55.9059 88.2887 55.9059 88.382V97.678C55.9059 97.7713 55.8733 97.8507 55.8079 97.916C55.7519 97.972 55.6773 98 55.5839 98H54.9539C54.8513 98 54.7719 97.972 54.7159 97.916C54.6599 97.8507 54.6319 97.7713 54.6319 97.678V97.09C54.3986 97.3887 54.0953 97.6407 53.7219 97.846C53.3486 98.042 52.8819 98.14 52.3219 98.14ZM52.6159 97.006C53.0826 97.006 53.4559 96.8987 53.7359 96.684C54.0159 96.4693 54.2259 96.1987 54.3659 95.872C54.5059 95.536 54.5806 95.1953 54.5899 94.85C54.5993 94.7007 54.6039 94.5233 54.6039 94.318C54.6039 94.1033 54.5993 93.9213 54.5899 93.772C54.5806 93.4453 54.5013 93.1233 54.3519 92.806C54.2119 92.4887 53.9973 92.2273 53.7079 92.022C53.4279 91.8167 53.0639 91.714 52.6159 91.714C52.1399 91.714 51.7619 91.8213 51.4819 92.036C51.2019 92.2413 51.0013 92.5167 50.8799 92.862C50.7586 93.198 50.6886 93.562 50.6699 93.954C50.6606 94.2247 50.6606 94.4953 50.6699 94.766C50.6886 95.158 50.7586 95.5267 50.8799 95.872C51.0013 96.208 51.2019 96.4833 51.4819 96.698C51.7619 96.9033 52.1399 97.006 52.6159 97.006ZM63.5197 98.14C63.0064 98.14 62.5631 98.0513 62.1897 97.874C61.8164 97.6873 61.5084 97.44 61.2657 97.132C61.0324 96.8147 60.8551 96.4553 60.7337 96.054C60.6217 95.6527 60.5564 95.228 60.5377 94.78C60.5284 94.6307 60.5237 94.4907 60.5237 94.36C60.5237 94.2293 60.5284 94.0893 60.5377 93.94C60.5564 93.5013 60.6217 93.0813 60.7337 92.68C60.8551 92.2787 61.0324 91.9193 61.2657 91.602C61.5084 91.2847 61.8164 91.0373 62.1897 90.86C62.5631 90.6733 63.0064 90.58 63.5197 90.58C64.0704 90.58 64.5277 90.678 64.8917 90.874C65.2557 91.07 65.5544 91.3127 65.7877 91.602V88.382C65.7877 88.2887 65.8157 88.214 65.8717 88.158C65.9371 88.0927 66.0164 88.06 66.1097 88.06H66.7817C66.8751 88.06 66.9497 88.0927 67.0057 88.158C67.0711 88.214 67.1038 88.2887 67.1038 88.382V97.678C67.1038 97.7713 67.0711 97.8507 67.0057 97.916C66.9497 97.972 66.8751 98 66.7817 98H66.1517C66.0491 98 65.9697 97.972 65.9137 97.916C65.8577 97.8507 65.8297 97.7713 65.8297 97.678V97.09C65.5964 97.3887 65.2931 97.6407 64.9197 97.846C64.5464 98.042 64.0797 98.14 63.5197 98.14ZM63.8137 97.006C64.2804 97.006 64.6537 96.8987 64.9337 96.684C65.2137 96.4693 65.4237 96.1987 65.5637 95.872C65.7037 95.536 65.7784 95.1953 65.7877 94.85C65.7971 94.7007 65.8017 94.5233 65.8017 94.318C65.8017 94.1033 65.7971 93.9213 65.7877 93.772C65.7784 93.4453 65.6991 93.1233 65.5497 92.806C65.4097 92.4887 65.1951 92.2273 64.9057 92.022C64.6257 91.8167 64.2617 91.714 63.8137 91.714C63.3377 91.714 62.9597 91.8213 62.6797 92.036C62.3997 92.2413 62.1991 92.5167 62.0777 92.862C61.9564 93.198 61.8864 93.562 61.8677 93.954C61.8584 94.2247 61.8584 94.4953 61.8677 94.766C61.8864 95.158 61.9564 95.5267 62.0777 95.872C62.1991 96.208 62.3997 96.4833 62.6797 96.698C62.9597 96.9033 63.3377 97.006 63.8137 97.006ZM69.2279 98C69.1346 98 69.0553 97.972 68.9899 97.916C68.9339 97.8507 68.9059 97.7713 68.9059 97.678V91.056C68.9059 90.9627 68.9339 90.8833 68.9899 90.818C69.0553 90.7527 69.1346 90.72 69.2279 90.72H69.8719C69.9653 90.72 70.0446 90.7527 70.1099 90.818C70.1753 90.8833 70.2079 90.9627 70.2079 91.056V91.672C70.3946 91.3547 70.6513 91.1167 70.9779 90.958C71.3046 90.7993 71.6966 90.72 72.1539 90.72H72.7139C72.8073 90.72 72.8819 90.7527 72.9379 90.818C72.9939 90.874 73.0219 90.9487 73.0219 91.042V91.616C73.0219 91.7093 72.9939 91.784 72.9379 91.84C72.8819 91.896 72.8073 91.924 72.7139 91.924H71.8739C71.3699 91.924 70.9733 92.0733 70.6839 92.372C70.3946 92.6613 70.2499 93.058 70.2499 93.562V97.678C70.2499 97.7713 70.2173 97.8507 70.1519 97.916C70.0866 97.972 70.0073 98 69.9139 98H69.2279ZM76.7896 98.14C76.0802 98.14 75.4876 98.0047 75.0116 97.734C74.5356 97.4633 74.1716 97.09 73.9196 96.614C73.6676 96.1287 73.5276 95.578 73.4996 94.962C73.4902 94.8033 73.4856 94.6027 73.4856 94.36C73.4856 94.108 73.4902 93.9073 73.4996 93.758C73.5276 93.1327 73.6676 92.582 73.9196 92.106C74.1809 91.63 74.5496 91.2567 75.0256 90.986C75.5016 90.7153 76.0896 90.58 76.7896 90.58C77.4896 90.58 78.0776 90.7153 78.5536 90.986C79.0296 91.2567 79.3936 91.63 79.6456 92.106C79.9069 92.582 80.0516 93.1327 80.0796 93.758C80.0889 93.9073 80.0936 94.108 80.0936 94.36C80.0936 94.6027 80.0889 94.8033 80.0796 94.962C80.0516 95.578 79.9116 96.1287 79.6596 96.614C79.4076 97.09 79.0436 97.4633 78.5676 97.734C78.0916 98.0047 77.4989 98.14 76.7896 98.14ZM76.7896 97.062C77.3682 97.062 77.8302 96.88 78.1756 96.516C78.5209 96.1427 78.7076 95.6013 78.7356 94.892C78.7449 94.752 78.7496 94.5747 78.7496 94.36C78.7496 94.1453 78.7449 93.968 78.7356 93.828C78.7076 93.1187 78.5209 92.582 78.1756 92.218C77.8302 91.8447 77.3682 91.658 76.7896 91.658C76.2109 91.658 75.7442 91.8447 75.3896 92.218C75.0442 92.582 74.8622 93.1187 74.8436 93.828C74.8342 93.968 74.8296 94.1453 74.8296 94.36C74.8296 94.5747 74.8342 94.752 74.8436 94.892C74.8622 95.6013 75.0442 96.1427 75.3896 96.516C75.7442 96.88 76.2109 97.062 76.7896 97.062ZM81.9026 100.66C81.8093 100.66 81.73 100.627 81.6646 100.562C81.6086 100.506 81.5806 100.431 81.5806 100.338V91.042C81.5806 90.9487 81.6086 90.874 81.6646 90.818C81.73 90.7527 81.8093 90.72 81.9026 90.72H82.5466C82.64 90.72 82.7146 90.7527 82.7706 90.818C82.836 90.874 82.8686 90.9487 82.8686 91.042V91.658C83.0926 91.35 83.3913 91.0933 83.7646 90.888C84.138 90.6827 84.6046 90.58 85.1646 90.58C85.6873 90.58 86.1306 90.6687 86.4946 90.846C86.868 91.0233 87.1713 91.266 87.4046 91.574C87.6473 91.882 87.8293 92.232 87.9506 92.624C88.072 93.016 88.1373 93.436 88.1466 93.884C88.156 94.0333 88.1606 94.192 88.1606 94.36C88.1606 94.528 88.156 94.6867 88.1466 94.836C88.1373 95.2747 88.072 95.6947 87.9506 96.096C87.8293 96.488 87.6473 96.838 87.4046 97.146C87.1713 97.4447 86.868 97.6873 86.4946 97.874C86.1306 98.0513 85.6873 98.14 85.1646 98.14C84.6233 98.14 84.166 98.042 83.7926 97.846C83.4286 97.6407 83.13 97.3887 82.8966 97.09V100.338C82.8966 100.431 82.8686 100.506 82.8126 100.562C82.7566 100.627 82.6773 100.66 82.5746 100.66H81.9026ZM84.8706 97.006C85.356 97.006 85.734 96.9033 86.0046 96.698C86.2846 96.4833 86.4853 96.208 86.6066 95.872C86.728 95.5267 86.798 95.158 86.8166 94.766C86.826 94.4953 86.826 94.2247 86.8166 93.954C86.798 93.562 86.728 93.198 86.6066 92.862C86.4853 92.5167 86.2846 92.2413 86.0046 92.036C85.734 91.8213 85.356 91.714 84.8706 91.714C84.4133 91.714 84.04 91.8213 83.7506 92.036C83.4706 92.2507 83.2606 92.526 83.1206 92.862C82.99 93.1887 82.9153 93.5247 82.8966 93.87C82.8873 94.0193 82.8826 94.1967 82.8826 94.402C82.8826 94.6073 82.8873 94.7893 82.8966 94.948C82.906 95.2747 82.9806 95.5967 83.1206 95.914C83.27 96.2313 83.4893 96.4927 83.7786 96.698C84.068 96.9033 84.432 97.006 84.8706 97.006ZM95.7601 98.14C95.0508 98.14 94.4581 98.0047 93.9821 97.734C93.5061 97.4633 93.1421 97.09 92.8901 96.614C92.6381 96.1287 92.4981 95.578 92.4701 94.962C92.4608 94.8033 92.4561 94.6027 92.4561 94.36C92.4561 94.108 92.4608 93.9073 92.4701 93.758C92.4981 93.1327 92.6381 92.582 92.8901 92.106C93.1514 91.63 93.5201 91.2567 93.9961 90.986C94.4721 90.7153 95.0601 90.58 95.7601 90.58C96.4601 90.58 97.0481 90.7153 97.5241 90.986C98.0001 91.2567 98.3641 91.63 98.6161 92.106C98.8774 92.582 99.0221 93.1327 99.0501 93.758C99.0594 93.9073 99.0641 94.108 99.0641 94.36C99.0641 94.6027 99.0594 94.8033 99.0501 94.962C99.0221 95.578 98.8821 96.1287 98.6301 96.614C98.3781 97.09 98.0141 97.4633 97.5381 97.734C97.0621 98.0047 96.4694 98.14 95.7601 98.14ZM95.7601 97.062C96.3388 97.062 96.8008 96.88 97.1461 96.516C97.4914 96.1427 97.6781 95.6013 97.7061 94.892C97.7154 94.752 97.7201 94.5747 97.7201 94.36C97.7201 94.1453 97.7154 93.968 97.7061 93.828C97.6781 93.1187 97.4914 92.582 97.1461 92.218C96.8008 91.8447 96.3388 91.658 95.7601 91.658C95.1814 91.658 94.7148 91.8447 94.3601 92.218C94.0148 92.582 93.8328 93.1187 93.8141 93.828C93.8048 93.968 93.8001 94.1453 93.8001 94.36C93.8001 94.5747 93.8048 94.752 93.8141 94.892C93.8328 95.6013 94.0148 96.1427 94.3601 96.516C94.7148 96.88 95.1814 97.062 95.7601 97.062ZM100.859 98C100.766 98 100.687 97.972 100.621 97.916C100.565 97.8507 100.537 97.7713 100.537 97.678V91.056C100.537 90.9627 100.565 90.8833 100.621 90.818C100.687 90.7527 100.766 90.72 100.859 90.72H101.503C101.597 90.72 101.676 90.7527 101.741 90.818C101.807 90.8833 101.839 90.9627 101.839 91.056V91.672C102.026 91.3547 102.283 91.1167 102.609 90.958C102.936 90.7993 103.328 90.72 103.785 90.72H104.345C104.439 90.72 104.513 90.7527 104.569 90.818C104.625 90.874 104.653 90.9487 104.653 91.042V91.616C104.653 91.7093 104.625 91.784 104.569 91.84C104.513 91.896 104.439 91.924 104.345 91.924H103.505C103.001 91.924 102.605 92.0733 102.315 92.372C102.026 92.6613 101.881 93.058 101.881 93.562V97.678C101.881 97.7713 101.849 97.8507 101.783 97.916C101.718 97.972 101.639 98 101.545 98H100.859ZM111.339 98.14C110.676 98.14 110.102 98.014 109.617 97.762C109.141 97.5007 108.772 97.132 108.511 96.656C108.25 96.1707 108.11 95.592 108.091 94.92C108.082 94.78 108.077 94.5933 108.077 94.36C108.077 94.1267 108.082 93.94 108.091 93.8C108.11 93.128 108.25 92.554 108.511 92.078C108.772 91.5927 109.141 91.224 109.617 90.972C110.102 90.7107 110.676 90.58 111.339 90.58C111.88 90.58 112.342 90.6547 112.725 90.804C113.117 90.9533 113.439 91.1447 113.691 91.378C113.943 91.6113 114.13 91.8633 114.251 92.134C114.382 92.4047 114.452 92.6613 114.461 92.904C114.47 92.9973 114.442 93.072 114.377 93.128C114.312 93.184 114.232 93.212 114.139 93.212H113.467C113.374 93.212 113.304 93.1933 113.257 93.156C113.21 93.1093 113.164 93.0347 113.117 92.932C112.949 92.4747 112.72 92.1527 112.431 91.966C112.142 91.7793 111.782 91.686 111.353 91.686C110.793 91.686 110.336 91.8587 109.981 92.204C109.636 92.5493 109.449 93.1047 109.421 93.87C109.412 94.206 109.412 94.5327 109.421 94.85C109.449 95.6247 109.636 96.1847 109.981 96.53C110.336 96.866 110.793 97.034 111.353 97.034C111.782 97.034 112.142 96.9407 112.431 96.754C112.72 96.5673 112.949 96.2453 113.117 95.788C113.164 95.6853 113.21 95.6153 113.257 95.578C113.304 95.5313 113.374 95.508 113.467 95.508H114.139C114.232 95.508 114.312 95.536 114.377 95.592C114.442 95.648 114.47 95.7227 114.461 95.816C114.452 96.012 114.41 96.2127 114.335 96.418C114.26 96.6233 114.139 96.8333 113.971 97.048C113.812 97.2533 113.612 97.44 113.369 97.608C113.126 97.7667 112.832 97.8973 112.487 98C112.151 98.0933 111.768 98.14 111.339 98.14ZM116.18 98C116.086 98 116.007 97.972 115.942 97.916C115.886 97.8507 115.858 97.7713 115.858 97.678V88.382C115.858 88.2887 115.886 88.214 115.942 88.158C116.007 88.0927 116.086 88.06 116.18 88.06H116.838C116.94 88.06 117.02 88.0927 117.076 88.158C117.132 88.214 117.16 88.2887 117.16 88.382V97.678C117.16 97.7713 117.132 97.8507 117.076 97.916C117.02 97.972 116.94 98 116.838 98H116.18ZM119.427 98C119.333 98 119.254 97.972 119.189 97.916C119.133 97.8507 119.105 97.7713 119.105 97.678V91.042C119.105 90.9487 119.133 90.874 119.189 90.818C119.254 90.7527 119.333 90.72 119.427 90.72H120.099C120.192 90.72 120.267 90.7527 120.323 90.818C120.379 90.874 120.407 90.9487 120.407 91.042V97.678C120.407 97.7713 120.379 97.8507 120.323 97.916C120.267 97.972 120.192 98 120.099 98H119.427ZM119.315 89.362C119.221 89.362 119.142 89.334 119.077 89.278C119.021 89.2127 118.993 89.1333 118.993 89.04V88.284C118.993 88.1907 119.021 88.116 119.077 88.06C119.142 87.9947 119.221 87.962 119.315 87.962H120.197C120.29 87.962 120.365 87.9947 120.421 88.06C120.486 88.116 120.519 88.1907 120.519 88.284V89.04C120.519 89.1333 120.486 89.2127 120.421 89.278C120.365 89.334 120.29 89.362 120.197 89.362H119.315ZM125.183 98.14C124.52 98.14 123.946 98.014 123.461 97.762C122.985 97.5007 122.616 97.132 122.355 96.656C122.093 96.1707 121.953 95.592 121.935 94.92C121.925 94.78 121.921 94.5933 121.921 94.36C121.921 94.1267 121.925 93.94 121.935 93.8C121.953 93.128 122.093 92.554 122.355 92.078C122.616 91.5927 122.985 91.224 123.461 90.972C123.946 90.7107 124.52 90.58 125.183 90.58C125.724 90.58 126.186 90.6547 126.569 90.804C126.961 90.9533 127.283 91.1447 127.535 91.378C127.787 91.6113 127.973 91.8633 128.095 92.134C128.225 92.4047 128.295 92.6613 128.305 92.904C128.314 92.9973 128.286 93.072 128.221 93.128C128.155 93.184 128.076 93.212 127.983 93.212H127.311C127.217 93.212 127.147 93.1933 127.101 93.156C127.054 93.1093 127.007 93.0347 126.961 92.932C126.793 92.4747 126.564 92.1527 126.275 91.966C125.985 91.7793 125.626 91.686 125.197 91.686C124.637 91.686 124.179 91.8587 123.825 92.204C123.479 92.5493 123.293 93.1047 123.265 93.87C123.255 94.206 123.255 94.5327 123.265 94.85C123.293 95.6247 123.479 96.1847 123.825 96.53C124.179 96.866 124.637 97.034 125.197 97.034C125.626 97.034 125.985 96.9407 126.275 96.754C126.564 96.5673 126.793 96.2453 126.961 95.788C127.007 95.6853 127.054 95.6153 127.101 95.578C127.147 95.5313 127.217 95.508 127.311 95.508H127.983C128.076 95.508 128.155 95.536 128.221 95.592C128.286 95.648 128.314 95.7227 128.305 95.816C128.295 96.012 128.253 96.2127 128.179 96.418C128.104 96.6233 127.983 96.8333 127.815 97.048C127.656 97.2533 127.455 97.44 127.213 97.608C126.97 97.7667 126.676 97.8973 126.331 98C125.995 98.0933 125.612 98.14 125.183 98.14ZM130.023 98C129.93 98 129.851 97.972 129.785 97.916C129.729 97.8507 129.701 97.7713 129.701 97.678V88.382C129.701 88.2887 129.729 88.214 129.785 88.158C129.851 88.0927 129.93 88.06 130.023 88.06H130.681C130.775 88.06 130.849 88.0927 130.905 88.158C130.971 88.214 131.003 88.2887 131.003 88.382V93.254L133.761 90.958C133.873 90.8647 133.957 90.804 134.013 90.776C134.079 90.7387 134.181 90.72 134.321 90.72H135.063C135.147 90.72 135.217 90.748 135.273 90.804C135.329 90.86 135.357 90.93 135.357 91.014C135.357 91.0513 135.343 91.0933 135.315 91.14C135.297 91.1867 135.255 91.2333 135.189 91.28L131.955 93.968L135.539 97.454C135.651 97.5473 135.707 97.6313 135.707 97.706C135.707 97.79 135.679 97.86 135.623 97.916C135.567 97.972 135.497 98 135.413 98H134.685C134.545 98 134.443 97.986 134.377 97.958C134.312 97.9207 134.228 97.8553 134.125 97.762L131.003 94.78V97.678C131.003 97.7713 130.971 97.8507 130.905 97.916C130.849 97.972 130.775 98 130.681 98H130.023ZM142.182 98C141.659 98 141.235 97.902 140.908 97.706C140.581 97.5007 140.343 97.216 140.194 96.852C140.045 96.4787 139.97 96.04 139.97 95.536V91.84H138.878C138.785 91.84 138.705 91.812 138.64 91.756C138.584 91.6907 138.556 91.6113 138.556 91.518V91.042C138.556 90.9487 138.584 90.874 138.64 90.818C138.705 90.7527 138.785 90.72 138.878 90.72H139.97V88.382C139.97 88.2887 139.998 88.214 140.054 88.158C140.119 88.0927 140.199 88.06 140.292 88.06H140.95C141.043 88.06 141.118 88.0927 141.174 88.158C141.239 88.214 141.272 88.2887 141.272 88.382V90.72H143.008C143.101 90.72 143.176 90.7527 143.232 90.818C143.297 90.874 143.33 90.9487 143.33 91.042V91.518C143.33 91.6113 143.297 91.6907 143.232 91.756C143.176 91.812 143.101 91.84 143.008 91.84H141.272V95.438C141.272 95.8767 141.347 96.222 141.496 96.474C141.645 96.726 141.911 96.852 142.294 96.852H143.148C143.241 96.852 143.316 96.8847 143.372 96.95C143.437 97.006 143.47 97.0807 143.47 97.174V97.678C143.47 97.7713 143.437 97.8507 143.372 97.916C143.316 97.972 143.241 98 143.148 98H142.182ZM147.511 98.14C146.802 98.14 146.209 98.0047 145.733 97.734C145.257 97.4633 144.893 97.09 144.641 96.614C144.389 96.1287 144.249 95.578 144.221 94.962C144.212 94.8033 144.207 94.6027 144.207 94.36C144.207 94.108 144.212 93.9073 144.221 93.758C144.249 93.1327 144.389 92.582 144.641 92.106C144.902 91.63 145.271 91.2567 145.747 90.986C146.223 90.7153 146.811 90.58 147.511 90.58C148.211 90.58 148.799 90.7153 149.275 90.986C149.751 91.2567 150.115 91.63 150.367 92.106C150.628 92.582 150.773 93.1327 150.801 93.758C150.81 93.9073 150.815 94.108 150.815 94.36C150.815 94.6027 150.81 94.8033 150.801 94.962C150.773 95.578 150.633 96.1287 150.381 96.614C150.129 97.09 149.765 97.4633 149.289 97.734C148.813 98.0047 148.22 98.14 147.511 98.14ZM147.511 97.062C148.09 97.062 148.552 96.88 148.897 96.516C149.242 96.1427 149.429 95.6013 149.457 94.892C149.466 94.752 149.471 94.5747 149.471 94.36C149.471 94.1453 149.466 93.968 149.457 93.828C149.429 93.1187 149.242 92.582 148.897 92.218C148.552 91.8447 148.09 91.658 147.511 91.658C146.932 91.658 146.466 91.8447 146.111 92.218C145.766 92.582 145.584 93.1187 145.565 93.828C145.556 93.968 145.551 94.1453 145.551 94.36C145.551 94.5747 145.556 94.752 145.565 94.892C145.584 95.6013 145.766 96.1427 146.111 96.516C146.466 96.88 146.932 97.062 147.511 97.062ZM159.038 98.14C158.478 98.14 158.011 98.042 157.638 97.846C157.264 97.6407 156.966 97.3887 156.742 97.09V97.678C156.742 97.7713 156.709 97.8507 156.644 97.916C156.588 97.972 156.513 98 156.42 98H155.776C155.682 98 155.603 97.972 155.538 97.916C155.482 97.8507 155.454 97.7713 155.454 97.678V88.382C155.454 88.2887 155.482 88.214 155.538 88.158C155.603 88.0927 155.682 88.06 155.776 88.06H156.448C156.55 88.06 156.63 88.0927 156.686 88.158C156.742 88.214 156.77 88.2887 156.77 88.382V91.602C157.003 91.3127 157.302 91.07 157.666 90.874C158.039 90.678 158.496 90.58 159.038 90.58C159.56 90.58 160.004 90.6733 160.368 90.86C160.741 91.0373 161.044 91.2847 161.278 91.602C161.52 91.9193 161.702 92.2787 161.824 92.68C161.945 93.0813 162.01 93.5013 162.02 93.94C162.029 94.0893 162.034 94.2293 162.034 94.36C162.034 94.4907 162.029 94.6307 162.02 94.78C162.01 95.228 161.945 95.6527 161.824 96.054C161.702 96.4553 161.52 96.8147 161.278 97.132C161.044 97.44 160.741 97.6873 160.368 97.874C160.004 98.0513 159.56 98.14 159.038 98.14ZM158.744 97.006C159.229 97.006 159.607 96.9033 159.878 96.698C160.158 96.4833 160.358 96.208 160.48 95.872C160.601 95.5267 160.671 95.158 160.69 94.766C160.699 94.4953 160.699 94.2247 160.69 93.954C160.671 93.562 160.601 93.198 160.48 92.862C160.358 92.5167 160.158 92.2413 159.878 92.036C159.607 91.8213 159.229 91.714 158.744 91.714C158.305 91.714 157.941 91.8167 157.652 92.022C157.362 92.2273 157.143 92.4887 156.994 92.806C156.854 93.1233 156.779 93.4453 156.77 93.772C156.76 93.9213 156.756 94.1033 156.756 94.318C156.756 94.5233 156.76 94.7007 156.77 94.85C156.788 95.1953 156.863 95.536 156.994 95.872C157.134 96.1987 157.344 96.4693 157.624 96.684C157.913 96.8987 158.286 97.006 158.744 97.006ZM163.808 98C163.714 98 163.635 97.972 163.57 97.916C163.514 97.8507 163.486 97.7713 163.486 97.678V91.056C163.486 90.9627 163.514 90.8833 163.57 90.818C163.635 90.7527 163.714 90.72 163.808 90.72H164.452C164.545 90.72 164.624 90.7527 164.69 90.818C164.755 90.8833 164.788 90.9627 164.788 91.056V91.672C164.974 91.3547 165.231 91.1167 165.558 90.958C165.884 90.7993 166.276 90.72 166.734 90.72H167.294C167.387 90.72 167.462 90.7527 167.518 90.818C167.574 90.874 167.602 90.9487 167.602 91.042V91.616C167.602 91.7093 167.574 91.784 167.518 91.84C167.462 91.896 167.387 91.924 167.294 91.924H166.454C165.95 91.924 165.553 92.0733 165.264 92.372C164.974 92.6613 164.83 93.058 164.83 93.562V97.678C164.83 97.7713 164.797 97.8507 164.732 97.916C164.666 97.972 164.587 98 164.494 98H163.808ZM171.369 98.14C170.66 98.14 170.067 98.0047 169.591 97.734C169.115 97.4633 168.751 97.09 168.499 96.614C168.247 96.1287 168.107 95.578 168.079 94.962C168.07 94.8033 168.065 94.6027 168.065 94.36C168.065 94.108 168.07 93.9073 168.079 93.758C168.107 93.1327 168.247 92.582 168.499 92.106C168.761 91.63 169.129 91.2567 169.605 90.986C170.081 90.7153 170.669 90.58 171.369 90.58C172.069 90.58 172.657 90.7153 173.133 90.986C173.609 91.2567 173.973 91.63 174.225 92.106C174.487 92.582 174.631 93.1327 174.659 93.758C174.669 93.9073 174.673 94.108 174.673 94.36C174.673 94.6027 174.669 94.8033 174.659 94.962C174.631 95.578 174.491 96.1287 174.239 96.614C173.987 97.09 173.623 97.4633 173.147 97.734C172.671 98.0047 172.079 98.14 171.369 98.14ZM171.369 97.062C171.948 97.062 172.41 96.88 172.755 96.516C173.101 96.1427 173.287 95.6013 173.315 94.892C173.325 94.752 173.329 94.5747 173.329 94.36C173.329 94.1453 173.325 93.968 173.315 93.828C173.287 93.1187 173.101 92.582 172.755 92.218C172.41 91.8447 171.948 91.658 171.369 91.658C170.791 91.658 170.324 91.8447 169.969 92.218C169.624 92.582 169.442 93.1187 169.423 93.828C169.414 93.968 169.409 94.1453 169.409 94.36C169.409 94.5747 169.414 94.752 169.423 94.892C169.442 95.6013 169.624 96.1427 169.969 96.516C170.324 96.88 170.791 97.062 171.369 97.062ZM177.887 98C177.766 98 177.672 97.972 177.607 97.916C177.542 97.8507 177.486 97.762 177.439 97.65L175.451 91.154C175.432 91.1073 175.423 91.0607 175.423 91.014C175.423 90.93 175.451 90.86 175.507 90.804C175.572 90.748 175.642 90.72 175.717 90.72H176.333C176.436 90.72 176.515 90.748 176.571 90.804C176.627 90.86 176.664 90.9113 176.683 90.958L178.237 96.236L179.903 91.014C179.922 90.9487 179.959 90.8833 180.015 90.818C180.08 90.7527 180.174 90.72 180.295 90.72H180.771C180.892 90.72 180.986 90.7527 181.051 90.818C181.116 90.8833 181.154 90.9487 181.163 91.014L182.829 96.236L184.383 90.958C184.392 90.9113 184.425 90.86 184.481 90.804C184.537 90.748 184.616 90.72 184.719 90.72H185.335C185.419 90.72 185.489 90.748 185.545 90.804C185.601 90.86 185.629 90.93 185.629 91.014C185.629 91.0607 185.62 91.1073 185.601 91.154L183.613 97.65C183.585 97.762 183.534 97.8507 183.459 97.916C183.394 97.972 183.296 98 183.165 98H182.619C182.498 98 182.395 97.972 182.311 97.916C182.236 97.8507 182.185 97.762 182.157 97.65L180.533 92.638L178.909 97.65C178.872 97.762 178.816 97.8507 178.741 97.916C178.666 97.972 178.564 98 178.433 98H177.887ZM189.242 98.14C188.719 98.14 188.271 98.0747 187.898 97.944C187.525 97.8133 187.221 97.6547 186.988 97.468C186.755 97.2813 186.577 97.0947 186.456 96.908C186.344 96.7213 186.283 96.572 186.274 96.46C186.265 96.3573 186.297 96.278 186.372 96.222C186.447 96.166 186.521 96.138 186.596 96.138H187.212C187.268 96.138 187.31 96.1473 187.338 96.166C187.375 96.1753 187.422 96.2127 187.478 96.278C187.599 96.4087 187.735 96.5393 187.884 96.67C188.033 96.8007 188.215 96.908 188.43 96.992C188.654 97.076 188.929 97.118 189.256 97.118C189.732 97.118 190.124 97.0293 190.432 96.852C190.74 96.6653 190.894 96.3947 190.894 96.04C190.894 95.8067 190.829 95.62 190.698 95.48C190.577 95.34 190.353 95.214 190.026 95.102C189.709 94.99 189.27 94.8733 188.71 94.752C188.15 94.6213 187.707 94.4627 187.38 94.276C187.053 94.08 186.82 93.8513 186.68 93.59C186.54 93.3193 186.47 93.016 186.47 92.68C186.47 92.3347 186.573 92.0033 186.778 91.686C186.983 91.3593 187.282 91.0933 187.674 90.888C188.075 90.6827 188.575 90.58 189.172 90.58C189.657 90.58 190.073 90.6407 190.418 90.762C190.763 90.8833 191.048 91.0373 191.272 91.224C191.496 91.4013 191.664 91.5787 191.776 91.756C191.888 91.9333 191.949 92.0827 191.958 92.204C191.967 92.2973 191.939 92.3767 191.874 92.442C191.809 92.498 191.734 92.526 191.65 92.526H191.062C190.997 92.526 190.941 92.512 190.894 92.484C190.857 92.456 190.819 92.4233 190.782 92.386C190.689 92.2647 190.577 92.1433 190.446 92.022C190.325 91.9007 190.161 91.8027 189.956 91.728C189.76 91.644 189.499 91.602 189.172 91.602C188.705 91.602 188.355 91.7 188.122 91.896C187.889 92.092 187.772 92.3393 187.772 92.638C187.772 92.8153 187.823 92.974 187.926 93.114C188.029 93.254 188.225 93.38 188.514 93.492C188.803 93.604 189.233 93.7253 189.802 93.856C190.418 93.9773 190.903 94.1407 191.258 94.346C191.613 94.5513 191.865 94.7893 192.014 95.06C192.163 95.3307 192.238 95.6433 192.238 95.998C192.238 96.39 192.121 96.7493 191.888 97.076C191.664 97.4027 191.328 97.664 190.88 97.86C190.441 98.0467 189.895 98.14 189.242 98.14ZM196.477 98.14C195.515 98.14 194.75 97.846 194.181 97.258C193.611 96.6607 193.299 95.8487 193.243 94.822C193.233 94.7007 193.229 94.5467 193.229 94.36C193.229 94.164 193.233 94.0053 193.243 93.884C193.28 93.2213 193.434 92.6427 193.705 92.148C193.975 91.644 194.344 91.2567 194.811 90.986C195.287 90.7153 195.842 90.58 196.477 90.58C197.186 90.58 197.779 90.7293 198.255 91.028C198.74 91.3267 199.109 91.7513 199.361 92.302C199.613 92.8527 199.739 93.4967 199.739 94.234V94.472C199.739 94.5747 199.706 94.654 199.641 94.71C199.585 94.766 199.51 94.794 199.417 94.794H194.573C194.573 94.8033 194.573 94.822 194.573 94.85C194.573 94.878 194.573 94.9013 194.573 94.92C194.591 95.3027 194.675 95.662 194.825 95.998C194.974 96.3247 195.189 96.5907 195.469 96.796C195.749 97.0013 196.085 97.104 196.477 97.104C196.813 97.104 197.093 97.0527 197.317 96.95C197.541 96.8473 197.723 96.7353 197.863 96.614C198.003 96.4833 198.096 96.3853 198.143 96.32C198.227 96.1987 198.292 96.1287 198.339 96.11C198.385 96.082 198.46 96.068 198.563 96.068H199.235C199.328 96.068 199.403 96.096 199.459 96.152C199.524 96.1987 199.552 96.2687 199.543 96.362C199.533 96.502 199.459 96.6747 199.319 96.88C199.179 97.076 198.978 97.272 198.717 97.468C198.455 97.664 198.138 97.8273 197.765 97.958C197.391 98.0793 196.962 98.14 196.477 98.14ZM194.573 93.828H198.409V93.786C198.409 93.366 198.329 92.9927 198.171 92.666C198.021 92.3393 197.802 92.0827 197.513 91.896C197.223 91.7 196.878 91.602 196.477 91.602C196.075 91.602 195.73 91.7 195.441 91.896C195.161 92.0827 194.946 92.3393 194.797 92.666C194.647 92.9927 194.573 93.366 194.573 93.786V93.828Z" fill="black"/>
<path d="M108.074 39.1411L106.6 40.5558C106.07 41.0863 105.185 41.0274 104.714 40.3789L100.116 34.1895C99.5854 33.4821 98.5244 33.5411 98.0528 34.2484L90.2128 46.8632C89.6823 47.6884 90.2717 48.7495 91.2738 48.7495H114.263C115.265 48.7495 115.855 47.6295 115.265 46.8042L109.96 39.3179C109.489 38.7284 108.604 38.6105 108.074 39.1411Z" fill="#D2A5FF"/>
<path d="M123.341 21.5747L111.198 9.43158C110.962 9.19579 110.667 9.07789 110.314 9.07789L98.7011 9.01895C96.9326 3.77263 91.9811 0 86.2042 0C78.9537 0 73 5.89474 73 13.2042C73 18.9811 76.7726 23.9326 81.96 25.7011V52.2863C81.96 54.3495 83.6105 56 85.6737 56H119.922C121.985 56 123.636 54.3495 123.636 52.2863V22.4C123.695 22.1053 123.577 21.7516 123.341 21.5747ZM111.552 13.3221L119.451 21.2211H111.552V13.3221ZM75.4758 13.2042C75.4758 7.30947 80.3095 2.47579 86.2042 2.47579C92.0989 2.47579 96.9326 7.30947 96.9326 13.2042C96.9326 19.0989 92.0989 23.9326 86.2042 23.9326C80.3095 23.9326 75.4758 19.0989 75.4758 13.2042ZM121.219 52.2863C121.219 52.9937 120.688 53.5242 119.981 53.5242H85.6737C84.9663 53.5242 84.4358 52.9937 84.4358 52.2863V26.2905C85.0253 26.3495 85.6147 26.4084 86.2042 26.4084C93.4547 26.4084 99.4084 20.5137 99.4084 13.2042C99.4084 12.6147 99.3495 12.0842 99.2905 11.4947L109.076 11.5537V22.4589C109.076 23.1663 109.606 23.6968 110.314 23.6968H121.219V52.2863Z" fill="#D2A5FF"/>
<path d="M83.1397 10.7293H84.7902V15.1503C84.7902 15.3861 84.967 15.563 85.2028 15.563H87.207C87.4428 15.563 87.6197 15.3861 87.6197 15.1503V10.7293H89.2702C89.6828 10.7293 89.9186 10.2577 89.6828 9.96296L86.6176 5.89559C86.4407 5.6598 86.0281 5.6598 85.8513 5.89559L82.786 9.96296C82.4913 10.2577 82.727 10.7293 83.1397 10.7293Z" fill="#D2A5FF"/>
<path d="M92.1 17.9195C92.1 17.2711 91.5695 16.6816 90.8621 16.6816H81.5484C80.9 16.6816 80.3105 17.2122 80.3105 17.9195C80.3105 18.568 80.8411 19.1574 81.5484 19.1574H90.9211C91.5695 19.1574 92.1 18.6269 92.1 17.9195Z" fill="#D2A5FF"/>
</svg>
