<svg width="11" height="11" viewBox="0 0 11 11" fill="none" xmlns="http://www.w3.org/2000/svg">
<path d="M7.36695 0C8.10252 0 8.78943 0.367623 9.19746 0.97966L10.8153 3.40636C10.9357 3.58705 11 3.79936 11 4.01652V8.8C11 10.015 10.015 11 8.8 11H2.2C0.984973 11 0 10.015 0 8.8V4.01652C0 3.79936 0.0642818 3.58705 0.184745 3.40636L1.80254 0.97966C2.21057 0.367623 2.89748 0 3.63305 0H7.36695ZM9.9 4.4H1.1V8.8C1.1 9.3799 1.54873 9.85499 2.11791 9.89698L2.2 9.9H8.8C9.40751 9.9 9.9 9.40751 9.9 8.8V4.4ZM5.5 4.95C5.78206 4.95 6.01453 5.16232 6.0463 5.43586L6.05 5.5L6.04945 7.77205L6.84491 7.24237C7.09765 7.07388 7.43913 7.14217 7.60763 7.39491C7.76408 7.6296 7.71637 7.9408 7.5064 8.11897L7.45509 8.15763L5.80509 9.25763L5.77572 9.27591C5.76943 9.27955 5.76307 9.28306 5.75664 9.28645L5.80509 9.25763C5.78061 9.27394 5.7553 9.28804 5.7294 9.29996C5.71909 9.30465 5.70874 9.30904 5.69826 9.31312C5.69118 9.31589 5.68405 9.31848 5.67689 9.32092C5.66455 9.32519 5.6519 9.32904 5.63912 9.33244C5.63373 9.33368 5.62841 9.33498 5.62308 9.3362C5.60869 9.33983 5.59399 9.34266 5.57916 9.34488C5.57433 9.3451 5.56973 9.3457 5.56512 9.34625C5.49028 9.3561 5.41235 9.34996 5.33625 9.32583C5.33442 9.32451 5.33239 9.32386 5.33037 9.32321C5.31492 9.31883 5.2997 9.31305 5.2846 9.30652C5.27879 9.30367 5.27289 9.30104 5.26703 9.29831C5.26062 9.29552 5.25425 9.29235 5.24791 9.28903L5.23442 9.28176C5.22449 9.2763 5.21471 9.27052 5.2051 9.26442L5.19491 9.25763L3.54491 8.15763C3.29217 7.98913 3.22388 7.64765 3.39237 7.39491C3.54883 7.16023 3.85444 7.08458 4.09966 7.20987L4.15509 7.24237L4.95 7.77205V5.5C4.95 5.21794 5.16232 4.98547 5.43586 4.9537L5.5 4.95ZM7.36695 1.1H3.63305C3.26527 1.1 2.92181 1.28381 2.7178 1.58983L1.5774 3.3H9.4226L8.2822 1.58983C8.09519 1.30931 7.79101 1.13148 7.45832 1.10379L7.36695 1.1ZM7.15 1.65C7.45376 1.65 7.7 1.89624 7.7 2.2C7.7 2.48206 7.48768 2.71453 7.21414 2.7463L7.15 2.75H3.85C3.54624 2.75 3.3 2.50376 3.3 2.2C3.3 1.91794 3.51232 1.68547 3.78586 1.6537L3.85 1.65H7.15Z" fill="#6D6E70"/>
</svg>
