<svg width="13" height="9" viewBox="0 0 13 9" fill="none" xmlns="http://www.w3.org/2000/svg">
<path d="M4.11673 2.3185C4.11673 2.46037 4.00156 2.57553 3.85969 2.57553C3.71782 2.57553 3.60266 2.46037 3.60266 2.3185V1.79835C3.60266 1.3037 3.80507 0.853959 4.13084 0.528186C4.45662 0.202413 4.90651 0 5.40116 0H10.4053C10.9 0 11.3499 0.202413 11.6757 0.528186C12.0014 0.853959 12.2038 1.3037 12.2038 1.79835V6.80254C12.2038 7.29719 12.0014 7.74693 11.6757 8.0727C11.3499 8.39848 10.9 8.60089 10.4053 8.60089H5.40116C4.93078 8.60089 4.50031 8.41729 4.17864 8.11807C3.85514 7.81718 3.6415 7.39855 3.60782 6.93227C3.59795 6.79101 3.70447 6.6681 3.84573 6.65824C3.987 6.64838 4.1099 6.75489 4.11977 6.89616C4.14374 7.22861 4.29654 7.52752 4.52793 7.74268C4.7572 7.95587 5.06461 8.08682 5.40116 8.08682H10.4053C10.7584 8.08682 11.0798 7.94206 11.3124 7.70945C11.545 7.47685 11.6898 7.15562 11.6898 6.80254V1.79835C11.6898 1.44527 11.545 1.12405 11.3124 0.891437C11.0798 0.658829 10.7584 0.514075 10.4053 0.514075H5.40116C5.04807 0.514075 4.7267 0.658829 4.49409 0.891437C4.26149 1.12405 4.11673 1.44527 4.11673 1.79835V2.3185ZM10.1692 4.32457L7.29222 1.99181V2.55004C7.29222 2.69191 7.17705 2.80708 7.03518 2.80708C5.39114 2.80708 3.89565 3.09583 2.7487 3.91747C1.77927 4.61211 1.04882 5.69685 0.674797 7.32284C1.20647 6.83182 1.84937 6.49315 2.54082 6.2651C3.51677 5.94297 4.58771 5.84206 5.57156 5.84206H7.03518C7.17705 5.84206 7.29222 5.95723 7.29222 6.0991V6.65733L10.1692 4.32457ZM7.19678 1.25484L10.7348 4.12337C10.7492 4.1349 10.7627 4.1481 10.7748 4.16297C10.864 4.27268 10.8473 4.43412 10.7376 4.52334L7.21241 7.38156C7.16628 7.42556 7.10392 7.45257 7.03518 7.45257C6.89331 7.45257 6.77815 7.3374 6.77815 7.19553V6.35614H5.57156C4.63354 6.35614 3.61707 6.45082 2.70136 6.75307C1.80552 7.04865 1.00391 7.54421 0.469956 8.34704C0.417456 8.42579 0.323229 8.47252 0.223084 8.45947C0.0828822 8.44127 -0.0160483 8.3126 0.00215974 8.17239C0.310787 5.86755 1.19707 4.39725 2.44948 3.4999C3.63452 2.65094 5.13562 2.32548 6.77815 2.29543V1.45361C6.77906 1.39671 6.79772 1.33951 6.83641 1.29202C6.92563 1.18231 7.08708 1.16562 7.19678 1.25484Z" fill="white"/>
</svg>
