<svg width="10" height="11" viewBox="0 0 10 11" fill="none" xmlns="http://www.w3.org/2000/svg">
<path d="M9.67351 5.21548C9.71928 4.94658 9.58196 4.64779 9.35311 4.46852L9.32259 4.45358C9.30733 4.43864 9.30733 4.43864 9.29208 4.43864L9.26156 4.4237C9.26156 4.4237 9.24631 4.4237 9.24631 4.40876L9.20053 4.39382C9.18528 4.37888 9.15476 4.37888 9.12425 4.36394C8.74282 4.24443 8.31562 4.28925 7.91893 4.33406C7.82739 4.349 6.97298 4.349 6.95773 4.40876L7.09504 3.97552C7.17133 3.73649 7.23236 3.5124 7.30864 3.27337C7.41544 2.92977 7.44596 2.66086 7.41544 2.39195C7.36967 2.06329 7.17133 1.74956 6.88144 1.57029C6.71361 1.46572 6.53052 1.4209 6.34744 1.4209H6.30167C6.11858 1.43584 6.01178 1.52547 5.99652 1.70475C5.98127 1.92883 5.95075 2.13799 5.92024 2.3322C5.85921 2.6758 5.76766 2.95965 5.63035 3.19868C5.55406 3.33313 5.46252 3.46758 5.34046 3.57216C5.18789 3.72155 5.03532 3.90082 4.85223 4.09504L4.45555 4.54321C4.364 4.64779 4.27246 4.75236 4.16566 4.842C4.1504 4.85694 4.11989 4.88682 4.08937 4.9167C4.02834 4.97645 3.9368 5.02127 3.86052 5.06609C3.81474 5.08103 3.75372 5.11091 3.66217 5.12585C3.32651 5.21548 3.12817 5.30512 3.11291 5.51427C3.11291 5.61884 3.09766 5.72342 3.09766 5.81306V5.87281V6.12678V9.20428H3.6164H3.64692C3.83 9.23416 4.01309 9.26404 4.2572 9.30885L4.364 9.32379C4.83698 9.39849 5.27943 9.47319 5.70664 9.518C6.77464 9.63752 8.0715 9.95124 8.86488 8.99513C9.18528 8.60671 9.21579 8.05395 9.29208 7.57589C9.42939 6.78411 9.56671 6.00727 9.67351 5.21548Z" fill="black"/>
<path d="M2.18231 9.51847H0.763393C0.580306 9.51847 0.427734 9.36907 0.427734 9.1898V5.03667C0.427734 4.8574 0.580306 4.70801 0.763393 4.70801H2.18231C2.3654 4.70801 2.51797 4.8574 2.51797 5.03667V9.1898C2.51797 9.36907 2.38065 9.51847 2.18231 9.51847Z" fill="black"/>
</svg>
