<svg width="15" height="18" viewBox="0 0 15 18" fill="none" xmlns="http://www.w3.org/2000/svg">
<path d="M12.0884 0.279297H2.91721C2.22225 0.279297 1.55576 0.555367 1.06435 1.04678C0.572945 1.53818 0.296875 2.20468 0.296875 2.89963V16.3878C0.29796 16.6461 0.375387 16.8984 0.519423 17.1128C0.663459 17.3273 0.867675 17.4943 1.1064 17.5931C1.34512 17.6918 1.6077 17.7177 1.86113 17.6676C2.11455 17.6175 2.34751 17.4936 2.53071 17.3115L7.5028 12.3394L12.4749 17.3115C12.7195 17.5575 13.0516 17.6965 13.3986 17.698C13.5722 17.6986 13.744 17.6629 13.903 17.5932C14.141 17.4939 14.3444 17.3265 14.4878 17.1121C14.6311 16.8977 14.708 16.6457 14.7087 16.3878V2.89963C14.7087 2.20468 14.4327 1.53818 13.9412 1.04678C13.4498 0.555367 12.7833 0.279297 12.0884 0.279297Z" fill="white"/>
</svg>
