<svg width="10" height="10" viewBox="0 0 10 10" fill="none" xmlns="http://www.w3.org/2000/svg">
<path d="M2.13998 6.0099H0.875969C0.751349 6.0099 0.644531 5.91216 0.644531 5.79813V1.75831C0.644531 1.64429 0.751349 1.54655 0.875969 1.54655H2.15778V6.0099H2.13998ZM9.18993 5.73297C9.0119 5.91216 8.76266 6.02619 8.49562 6.02619H6.09222C5.89639 6.02619 5.75397 6.1565 5.73616 6.33569L5.59374 8.61623C5.55814 8.95831 5.23768 9.23524 4.86382 9.23524C4.57897 9.23524 4.32973 9.08863 4.20511 8.86058L2.8699 6.27053V1.36736L3.03012 1.22076C3.36838 0.927544 3.81345 0.764648 4.29413 0.764648H7.89032C8.33539 0.764648 8.72705 1.05786 8.78046 1.4651L9.38576 5.0651C9.43917 5.29316 9.35015 5.5375 9.18993 5.73297Z" fill="black"/>
</svg>
