<svg width="11" height="7" viewBox="0 0 11 7" fill="none" xmlns="http://www.w3.org/2000/svg">
<path d="M10.9628 3.35419C10.4094 2.35117 9.62267 1.51081 8.68767 0.924237C7.72353 0.319627 6.62133 0 5.50011 0C4.37878 0 3.27669 0.319627 2.31233 0.924237C1.37733 1.51081 0.590615 2.35105 0.0372073 3.35419C-0.0124024 3.44424 -0.0124024 3.55647 0.0372073 3.64629C0.590615 4.64954 1.37733 5.48966 2.31255 6.076C3.27647 6.68037 4.37867 7 5.50011 7C6.62122 7 7.72353 6.68037 8.68767 6.076C9.62278 5.48966 10.4095 4.64954 10.9628 3.64629C11.0124 3.55647 11.0124 3.44424 10.9628 3.35419ZM5.50011 6.37795C4.02887 6.37795 2.83207 5.0871 2.83207 3.50024C2.83207 1.91361 4.02887 0.622763 5.50011 0.622763C6.97113 0.622763 8.16793 1.91361 8.16793 3.50024C8.16793 5.0871 6.97113 6.37795 5.50011 6.37795Z" fill="white"/>
</svg>
